<svg width="330" height="160" viewBox="0 0 330 160" fill="none" xmlns="http://www.w3.org/2000/svg">
<path d="M173.409 88.3213C174.473 87.5227 175.005 86.2309 175.005 84.444C175.005 82.6577 174.473 81.3463 173.409 80.5094C172.344 79.6745 170.634 79.2555 168.278 79.2555H158.87V89.5184H168.278C170.634 89.5184 172.344 89.1193 173.409 88.3213ZM158.87 72.4706H167.251C169.532 72.4706 171.214 72.0819 172.297 71.3024C173.38 70.5234 173.923 69.3351 173.923 67.7384C173.923 66.0663 173.38 64.8407 172.297 64.0607C171.214 63.2822 169.532 62.892 167.251 62.892H158.87V72.4706ZM181.42 79.0564C182.693 80.7477 183.33 82.8288 183.33 85.2995C183.33 88.6826 182.084 91.3626 179.595 93.3383C177.105 95.3154 173.674 96.3033 169.304 96.3033H154.366C153.035 96.3033 152.009 95.9424 151.287 95.2197C150.564 94.4986 150.204 93.4721 150.204 92.1412V60.2693C150.204 58.9393 150.564 57.9127 151.287 57.1906C152.009 56.469 153.035 56.1077 154.366 56.1077H168.734C172.915 56.1077 176.232 57.0392 178.683 58.9011C181.135 60.7639 182.361 63.3106 182.361 66.5412C182.361 68.6316 181.799 70.4666 180.678 72.0432C179.557 73.6207 178.008 74.7713 176.032 75.493C178.35 76.1768 180.146 77.3655 181.42 79.0564Z" fill="white"/>
<path d="M209.445 78.63C208.932 74.7532 206.651 72.13 203.002 72.13C199.41 72.13 197.072 74.6958 196.388 78.63H209.445ZM203.857 96.9886C194.678 96.9886 187.893 90.546 187.893 81.1953V81.0811C187.893 72.3585 194.108 65.1746 203.002 65.1746C213.208 65.1746 217.712 73.5556 217.712 79.8844C217.712 82.3925 215.944 84.046 213.663 84.046H196.502C197.358 87.9802 200.094 90.0328 203.971 90.0328C206.366 90.0328 208.362 89.2916 210.129 87.9802C210.756 87.5243 211.326 87.2958 212.238 87.2958C214.177 87.2958 215.603 88.7787 215.603 90.7171C215.603 91.8574 215.09 92.7124 214.462 93.2825C211.782 95.5636 208.305 96.9886 203.857 96.9886Z" fill="white"/>
<path d="M247.647 88.3213C248.711 87.5227 249.243 86.2309 249.243 84.444C249.243 82.6577 248.711 81.3463 247.647 80.5094C246.582 79.6745 244.872 79.2555 242.515 79.2555H233.108V89.5184H242.515C244.872 89.5184 246.582 89.1193 247.647 88.3213ZM233.108 72.4706H241.489C243.77 72.4706 245.451 72.0819 246.535 71.3024C247.618 70.5234 248.16 69.3351 248.16 67.7384C248.16 66.0663 247.618 64.8407 246.535 64.0607C245.451 63.2822 243.77 62.892 241.489 62.892H233.108V72.4706ZM255.658 79.0564C256.93 80.7477 257.567 82.8288 257.567 85.2995C257.567 88.6826 256.322 91.3626 253.833 93.3383C251.343 95.3154 247.912 96.3033 243.542 96.3033H228.603C227.272 96.3033 226.246 95.9424 225.525 95.2197C224.802 94.4986 224.441 93.4721 224.441 92.1412V60.2693C224.441 58.9393 224.802 57.9127 225.525 57.1906C226.246 56.469 227.272 56.1077 228.603 56.1077H242.972C247.152 56.1077 250.469 57.0392 252.921 58.9011C255.372 60.7639 256.599 63.3106 256.599 66.5412C256.599 68.6316 256.037 70.4666 254.916 72.0432C253.795 73.6207 252.245 74.7713 250.27 75.493C252.587 76.1768 254.384 77.3655 255.658 79.0564Z" fill="white"/>
<path d="M265.203 104.798C263.948 104.341 262.466 103.316 262.466 101.206C262.466 99.0962 264.119 97.6705 265.887 97.6705C266.571 97.6705 266.97 97.7843 267.312 97.899C268.054 98.1269 268.509 98.2407 269.136 98.2407C270.676 98.2407 271.418 97.9559 272.216 96.4161L272.501 95.7322L262.067 71.5579C261.839 70.9878 261.611 70.1328 261.611 69.5622C261.611 67.1111 263.492 65.4001 265.887 65.4001C268.054 65.4001 269.308 66.5978 270.049 68.6504L276.663 86.4389L283.048 68.7072C283.733 66.8831 284.987 65.4001 287.211 65.4001C289.434 65.4001 291.316 67.1111 291.316 69.3916C291.316 70.0755 291.088 71.0447 290.916 71.4437L280.255 97.0436C277.69 103.258 275.123 105.596 269.935 105.596C267.997 105.596 266.628 105.311 265.203 104.798Z" fill="white"/>
<path d="M196.882 118.872C196.072 118.415 195.449 117.761 195.012 116.909C194.577 116.058 194.358 115.061 194.358 113.919C194.358 112.776 194.577 111.782 195.012 110.936C195.449 110.089 196.072 109.438 196.882 108.981C197.691 108.524 198.637 108.295 199.717 108.295C201.077 108.295 202.251 108.669 203.238 109.417C203.393 109.541 203.502 109.666 203.564 109.791C203.627 109.915 203.658 110.071 203.658 110.258C203.658 110.528 203.582 110.759 203.432 110.951C203.282 111.143 203.097 111.239 202.879 111.239C202.733 111.239 202.607 111.221 202.497 111.185C202.388 111.148 202.266 111.083 202.131 110.99C201.716 110.72 201.331 110.526 200.978 110.406C200.625 110.286 200.246 110.227 199.841 110.227C198.844 110.227 198.094 110.536 197.591 111.154C197.086 111.772 196.835 112.693 196.835 113.919C196.835 116.39 197.837 117.626 199.841 117.626C200.225 117.626 200.589 117.566 200.932 117.447C201.275 117.328 201.674 117.133 202.131 116.862C202.287 116.769 202.417 116.704 202.521 116.668C202.624 116.632 202.744 116.613 202.879 116.613C203.097 116.613 203.282 116.71 203.432 116.901C203.582 117.094 203.658 117.325 203.658 117.595C203.658 117.782 203.624 117.94 203.557 118.069C203.489 118.2 203.383 118.322 203.237 118.436C202.251 119.184 201.077 119.557 199.717 119.557C198.637 119.557 197.691 119.329 196.882 118.872Z" fill="white"/>
<path d="M205.528 119.121C205.331 118.924 205.232 118.643 205.232 118.28V109.557C205.232 109.194 205.341 108.903 205.559 108.685C205.778 108.467 206.073 108.357 206.447 108.357C206.821 108.357 207.117 108.467 207.335 108.685C207.553 108.903 207.662 109.194 207.662 109.557V117.439H211.649C212.408 117.439 212.787 117.771 212.787 118.436C212.787 119.091 212.408 119.417 211.649 119.417L206.37 119.418C206.006 119.417 205.725 119.319 205.528 119.121Z" fill="white"/>
<path d="M220.585 116.707C221.109 116.063 221.371 115.133 221.371 113.919C221.371 112.703 221.112 111.776 220.593 111.138C220.074 110.499 219.352 110.18 218.428 110.18C217.503 110.18 216.784 110.499 216.27 111.138C215.756 111.776 215.499 112.703 215.499 113.919C215.499 115.133 215.759 116.063 216.278 116.707C216.797 117.351 217.514 117.673 218.428 117.673C219.341 117.673 220.061 117.351 220.585 116.707ZM215.585 118.864C214.78 118.402 214.16 117.748 213.723 116.901C213.287 116.055 213.069 115.061 213.069 113.919C213.069 112.776 213.287 111.782 213.723 110.936C214.16 110.089 214.78 109.438 215.585 108.981C216.389 108.524 217.337 108.295 218.428 108.295C219.518 108.295 220.466 108.524 221.27 108.981C222.075 109.438 222.696 110.089 223.132 110.936C223.568 111.782 223.786 112.776 223.786 113.919C223.786 115.061 223.568 116.055 223.132 116.901C222.696 117.748 222.075 118.402 221.27 118.864C220.466 119.326 219.518 119.557 218.428 119.557C217.337 119.557 216.389 119.326 215.585 118.864Z" fill="white"/>
<path d="M226.779 118.366C225.974 117.571 225.572 116.411 225.572 114.884V109.557C225.572 109.194 225.681 108.903 225.899 108.685C226.117 108.467 226.407 108.357 226.771 108.357C227.135 108.357 227.423 108.467 227.636 108.685C227.849 108.903 227.955 109.194 227.955 109.557V114.993C227.955 115.865 228.155 116.531 228.555 116.987C228.954 117.444 229.534 117.673 230.291 117.673C231.05 117.673 231.631 117.441 232.037 116.98C232.442 116.517 232.644 115.855 232.644 114.993V109.557C232.644 109.194 232.75 108.903 232.963 108.685C233.176 108.467 233.464 108.357 233.827 108.357C234.191 108.357 234.482 108.467 234.7 108.685C234.918 108.903 235.027 109.194 235.027 109.557V114.884C235.027 116.401 234.622 117.559 233.812 118.358C233.002 119.158 231.828 119.558 230.291 119.558C228.755 119.558 227.584 119.16 226.779 118.366Z" fill="white"/>
<path d="M241.244 117.453C243.581 117.452 244.748 116.275 244.748 113.916C244.748 111.57 243.581 110.396 241.244 110.396H239.577V117.452L241.244 117.453ZM237.443 119.119C237.246 118.922 237.147 118.642 237.147 118.279V109.571C237.147 109.207 237.246 108.927 237.443 108.73C237.64 108.532 237.92 108.434 238.284 108.434H241.415C242.609 108.434 243.637 108.652 244.499 109.088C245.361 109.524 246.02 110.152 246.478 110.973C246.934 111.793 247.163 112.774 247.163 113.917C247.163 115.059 246.937 116.043 246.485 116.869C246.034 117.694 245.377 118.325 244.515 118.761C243.653 119.197 242.62 119.416 241.415 119.416H238.284C237.92 119.416 237.64 119.317 237.443 119.119Z" fill="white"/>
<path d="M112.684 119.558H67.4776C51.7749 119.558 39 106.783 39 91.0808C39 83.8431 41.7178 76.9445 46.654 71.6554C48.8664 69.2833 52.5838 69.1548 54.9561 71.3682C57.3283 73.5816 57.4567 77.299 55.2433 79.6707C52.3451 82.7773 50.7484 86.8291 50.7484 91.0804C50.7484 100.305 58.2534 107.81 67.4776 107.81H112.684C121.908 107.81 129.413 100.305 129.413 91.0808C129.413 81.8566 121.908 74.3517 112.684 74.3517C109.44 74.3517 106.81 71.7221 106.81 68.4778C106.81 59.2531 99.3052 51.7486 90.0811 51.7486C81.6305 51.7486 74.6236 58.0461 73.5068 66.1948L94.2295 86.8678C96.5267 89.1592 96.531 92.8786 94.2397 95.1758C91.9479 97.472 88.2284 97.4764 85.9323 95.1856L63.3287 72.6365C62.2237 71.5344 61.6036 70.0377 61.6036 68.4778C61.6036 52.7747 74.3781 40.0002 90.0811 40.0002C103.949 40.0002 115.533 49.9652 118.051 63.1102C131.197 65.6276 141.162 77.2122 141.162 91.0804C141.162 106.783 128.387 119.558 112.684 119.558Z" fill="#EE303C"/>
</svg>
