<svg width="330" height="160" viewBox="0 0 330 160" fill="none" xmlns="http://www.w3.org/2000/svg">
<rect x="0.5" y="0.5" width="329" height="159" rx="7.32353" stroke="#BDC1D8"/>
<g clip-path="url(#clip0_1811_2129)">
<path d="M137.428 68.7155C138.704 69.3597 139.597 70.3124 140.419 71.3256C142.595 74.0128 144.124 77.0859 145.815 80.2159C144.805 80.3904 144.195 79.8335 143.639 79.4544C141.453 77.9581 139.287 77.2134 136.939 79.0787C128.427 81.9068 120.386 81.3264 113.369 75.3279C107.494 70.3091 106.517 61.3181 112.497 55.219C116.327 51.3106 121.103 49.5224 126.47 49.036C127.601 48.932 128.723 48.8112 129.858 49.0192C130.552 49.1467 131.024 48.875 131.391 48.2208C135.753 40.4677 142.588 36.2708 151.205 34.751C157.989 33.5534 164.76 33.7849 171.447 35.469C175.166 36.405 178.295 38.4145 181.004 41.0951C181.809 41.8935 182.621 42.6853 183.439 43.4737C184.453 44.4499 184.443 44.7116 183.166 45.3557C179.215 47.3519 175.446 49.6399 171.882 52.2566C164.157 57.9263 157.077 64.2737 151.215 71.8926C150.427 72.9192 150.242 72.9024 149.588 71.7483C148.389 69.628 147.18 67.5279 145.374 65.8237C143.996 64.5253 142.457 64.2469 140.719 64.8474C138.923 65.468 137.269 66.347 135.774 67.5849C136.151 68.3029 136.865 68.3297 137.438 68.7189L137.428 68.7155Z" fill="white"/>
<path d="M151.471 80.4914C154.328 79.4615 155.531 76.9487 157.06 74.7748C163.848 65.1363 171.862 56.6552 181.159 49.392C182.675 48.2077 184.218 47.0335 186.02 46.2653C187.627 45.5809 189.21 46.121 190.726 46.4431C196.311 47.6374 201.145 50.1435 204.648 54.8269C205.271 55.6622 206.231 55.7998 207.255 55.7763C210.6 55.6991 213.797 56.2728 216.627 58.1783C222.188 61.9224 222.687 71.6816 215.663 75.5061C211.399 77.8277 206.75 78.4651 202.034 76.6267C200.99 76.2207 200.175 76.5763 199.302 77.0661C194.906 79.5286 190.22 81.0584 185.147 81.1054C182.486 81.1289 179.865 80.686 177.403 79.599C176.359 79.1394 175.419 79.2401 174.381 79.693C168.991 82.0414 163.356 83.2726 157.461 83.1082C155.49 83.0545 153.513 82.8499 151.589 82.3534C151.121 82.2326 150.461 82.2326 150.367 81.6354C150.259 80.9611 150.932 80.8001 151.471 80.4881V80.4914Z" fill="#FFCD00"/>
<path d="M68.8334 124.777C67.8768 125.652 66.7752 125.941 65.6265 125.948C61.0823 125.974 56.5347 126.058 51.9905 125.927C48.5983 125.83 45.954 124.169 44.7076 120.996C43.4275 117.735 43.8351 114.575 46.3616 111.901C46.6782 111.565 47.0286 111.26 47.3823 110.965C47.8404 110.579 47.9852 110.237 47.5035 109.72C42.801 104.644 42.9526 95.8847 47.8303 90.6612C51.0237 87.2426 54.9717 86.0651 59.4856 86.6388C60.5332 86.773 60.9071 86.4542 61.3046 85.6457C62.0895 84.0421 63.2012 82.8142 65.101 82.472C66.9437 82.1399 68.4225 82.68 69.5509 84.1293C70.6592 85.5518 70.7737 87.1286 69.9922 88.7255C69.6082 89.5105 69.1164 90.2553 68.5808 90.9497C68.1126 91.5536 68.1227 92.0334 68.5538 92.6372C74.0379 100.343 69.8575 111.861 60.0414 114.226C58.5121 114.595 56.976 114.715 55.4399 114.266C54.9683 114.128 54.5304 114.028 54.2373 114.568C53.4221 116.061 52.6036 117.55 51.849 119.184C53.0179 117.101 54.9784 117.765 56.6964 117.658C59.8932 117.463 63.09 117.611 66.2834 117.765C68.0856 117.852 69.3387 118.835 70.0057 120.516C70.666 122.18 70.1236 123.535 68.8368 124.777M60.769 104.007C61.8099 102.356 61.9716 100.602 61.5674 98.7129C61.0756 96.4383 59.8764 95.311 57.6464 95.2305C55.3187 95.1467 53.9881 96.1632 53.3716 98.4378C53.1156 99.3805 53.028 100.34 53.1358 101.293C53.3514 103.182 54.0756 104.799 56.0328 105.459C57.835 106.067 59.4216 105.657 60.769 104.003M69.4263 98.3069C68.9783 96.6027 68.8941 94.734 67.4388 93.4759C67.0043 93.7309 66.9706 93.9624 67.0447 94.1503C67.8262 96.143 68.4326 98.1761 68.5437 100.33C68.5572 100.602 68.7526 100.803 69.0558 100.756C69.3253 100.716 69.5139 100.514 69.5577 100.253C69.6587 99.6723 69.6554 99.0852 69.4229 98.3103M68.9985 122.331C68.9244 120.11 67.4052 118.694 65.4379 119.08C65.8219 119.848 66.691 120.043 67.2064 120.637C67.7252 121.234 68.0081 122.019 68.6953 122.469C68.7459 122.502 68.8469 122.452 69.0019 122.328M68.4595 86.8803C68.5909 87.0715 68.6515 87.3735 69.0019 87.2527C69.4802 85.0184 68.0149 83.4818 65.3402 83.5858C66.5832 84.5252 67.8431 85.3035 68.4595 86.8803Z" fill="white"/>
<path d="M259.02 107.266C259.053 109.01 259.053 110.641 259.131 112.268C259.165 112.996 258.983 113.388 258.184 113.385C255.826 113.372 253.472 113.368 251.114 113.378C250.268 113.382 249.979 112.959 250.1 112.184C250.363 110.513 250.285 108.859 250.032 107.189C249.675 104.813 247.971 103.092 245.842 103.082C243.602 103.069 241.907 104.753 241.584 107.242C241.375 108.866 241.247 110.497 241.365 112.127C241.432 113.039 241.173 113.422 240.199 113.398C237.969 113.348 235.739 113.358 233.509 113.385C232.654 113.395 232.314 113.08 232.314 112.207C232.341 101.224 232.293 90.2433 232.374 79.2595C232.405 75.3545 235.958 73.1403 239.091 74.9116C240.445 75.6799 241.22 76.8105 241.368 78.4376C241.688 81.9602 241.136 85.4727 241.375 88.9886C241.459 90.2399 241.409 91.5047 241.5 92.7561C241.611 94.306 241.099 95.3796 239.59 96.0304C238.569 96.4699 237.579 97.057 237.097 98.2781C237.596 97.9729 238.104 97.6776 238.596 97.3589C240.493 96.1344 242.524 95.2521 244.804 95.1212C245.593 95.0776 245.872 94.5777 246.199 94.0343C247.3 92.1992 248.368 90.3473 249.527 88.5491C250.851 86.4892 253.522 85.8786 255.634 87.073C257.746 88.2673 258.471 90.7666 257.278 93.0245C256.537 94.4301 255.759 95.8358 254.833 97.1241C254.277 97.8957 254.368 98.3016 255.008 98.8921C257.41 101.12 258.868 103.824 259.023 107.262M254.728 102.032C256.399 104.069 256.621 106.729 257.592 109.356C258.828 106.565 255.604 99.7945 253.249 99.7006C253.398 100.643 254.159 101.177 254.732 102.032M238.583 76.0321C237.976 75.596 237.316 75.5222 236.339 75.7537C237.882 76.7971 238.919 78.0719 240.055 79.6789C240.206 77.9813 239.819 76.9178 238.583 76.0321ZM254.179 88.7168C255.183 89.3173 255.183 90.7868 256.416 91.4141C256.84 90.0789 256.207 89.2435 255.5 88.4988C254.823 87.7875 253.984 87.3615 252.889 87.7741C253.192 88.2539 253.684 88.3377 254.179 88.7168Z" fill="white"/>
<path d="M122.936 112.48C122.926 108.293 122.943 104.227 122.913 100.161C122.899 98.534 122.549 97.0143 121.208 95.8736C119.227 94.1895 116.162 94.7565 114.986 97.0679C114.505 98.014 114.248 99.0171 114.248 100.087C114.248 104.026 114.191 107.968 114.248 111.906C114.265 113.091 113.854 113.433 112.719 113.393C110.617 113.319 108.512 113.336 106.406 113.376C105.416 113.396 105.079 112.99 105.083 112.031C105.103 101.973 105.089 91.9149 105.099 81.8604C105.099 80.7734 105.2 79.6865 105.241 78.5961C105.325 76.2444 107.249 74.3187 109.623 74.2248C111.658 74.1443 114.154 76.3685 114.225 78.4586C114.302 80.7198 114.238 82.9843 114.235 85.2488C114.235 86.054 113.834 86.5706 113.103 86.8994C111.911 87.4328 110.91 88.2413 110.044 89.2713C110.887 88.8452 111.729 88.4191 112.571 87.9897C120.632 83.8834 130.303 88.8049 131.725 97.6986C132.038 99.6679 131.907 101.627 131.934 103.59C131.974 106.438 131.937 109.29 131.947 112.141C131.947 112.826 131.91 113.389 130.977 113.376C128.619 113.342 126.264 113.356 123.906 113.346C123.401 113.346 122.98 113.211 122.939 112.477M128.754 95.6891C129.252 97.3833 129.751 99.0775 130.249 100.772C130.404 100.718 130.556 100.661 130.711 100.607C130.751 96.9505 129.549 93.7735 126.844 91.1634C124.486 88.8855 121.771 87.5771 118.314 88.0635C122.963 88.9526 126.732 90.999 128.75 95.6925M112.093 78.6934C112.281 78.8914 112.345 79.2403 112.723 79.2134C113.154 76.969 111.537 75.3319 109.01 75.6607C110.287 76.4625 111.405 77.2576 112.093 78.6934Z" fill="white"/>
<path d="M177.328 113.093C174.341 113.093 171.474 113.043 168.614 113.113C167.388 113.144 166.849 112.909 166.785 111.5C166.714 109.863 166.943 108.239 166.775 106.605C166.68 105.703 167.368 105.666 168.051 105.669C171.629 105.686 175.21 105.689 178.787 105.689C180.428 105.689 182.071 105.672 183.712 105.669C184.325 105.669 184.79 105.542 184.817 104.787C184.844 103.978 184.382 103.814 183.695 103.797C180.417 103.72 177.14 103.854 173.855 103.602C170.022 103.307 166.603 100.043 166.381 96.1882C166.256 94.0478 166.566 92.0282 167.789 90.1897C169.443 87.7004 171.78 86.5564 174.718 86.543C178.716 86.5262 182.718 86.5162 186.717 86.5564C188.31 86.5732 189.812 86.8986 190.799 88.3647C192.137 90.3508 191.278 92.9206 188.987 93.662C188.226 93.9069 187.441 94.0176 186.629 94.0143C182.924 93.9941 179.218 94.0076 175.516 94.0076C175.179 94.0076 174.842 94.0143 174.506 94.021C173.805 94.031 173.404 94.343 173.377 95.0778C173.35 95.8796 173.845 96.0876 174.509 96.0909C177.288 96.101 180.067 96.0909 182.846 96.1043C183.601 96.1043 184.376 96.0674 185.11 96.205C188.991 96.9263 192.265 100.804 192.036 104.498C191.722 109.514 188.253 112.691 184.268 112.939C181.994 113.083 179.727 113.016 177.332 113.09M186.71 99.2545C188.465 100.362 189.28 102.069 189.748 103.992C189.85 104.408 189.765 104.934 190.422 104.975C190.995 102.995 189.839 100.251 187.633 98.701C186.424 97.8522 185.12 96.9296 183.207 97.614C184.295 98.5936 185.632 98.4393 186.71 99.2579M189.112 88.5895C188.637 88.2204 188.182 87.7877 187.276 88.103C188.236 89.1162 189.014 90.0623 190.348 90.8473C190.119 89.8073 189.728 89.2336 189.112 88.5895Z" fill="white"/>
<path d="M138.909 109.024C133.281 101.872 135.403 91.6497 143.494 87.795C153.007 83.2626 162.762 90.5929 163.099 99.4296C163.382 106.804 158.272 113.114 150.686 114.013C145.987 114.57 142.069 112.638 138.909 109.024ZM153.94 101.869C154.139 100.392 154.085 98.9364 153.468 97.5576C152.741 95.9305 151.515 94.9743 149.669 94.9274C147.84 94.8804 146.411 95.5044 145.529 97.2154C144.801 98.6211 144.65 100.107 144.868 101.614C145.293 104.499 147.604 106.176 150.363 105.646C152.337 105.267 153.273 103.814 153.943 101.869M154.311 89.7341C155.763 90.3782 156.928 91.3847 157.972 92.5521C159.562 94.3302 160.324 96.4673 160.765 98.7653C160.883 99.3893 160.708 100.215 161.853 100.701C161.86 96.635 160.465 93.411 157.612 90.811C155.281 88.6874 152.539 87.6876 149.369 88.0231C150.895 88.7545 152.583 88.9927 154.307 89.7341H154.311Z" fill="white"/>
<path d="M83.638 87.0905C91.2477 85.0071 98.9584 89.1504 100.926 96.2962C103.412 105.331 96.6374 114.392 87.421 114.094C79.936 113.852 74.6608 107.958 74.1319 101.523C73.5424 94.3705 78.2281 88.6304 83.638 87.0905ZM83.2338 98.7922C83.1227 99.6678 83.0688 100.54 83.1664 101.422C83.4056 103.603 84.9282 105.364 86.8517 105.666C89.1895 106.032 90.8502 105.052 91.8978 102.831C92.3896 101.785 92.4267 100.721 92.3324 99.641C92.0562 96.3666 89.9373 94.5651 86.8786 94.9912C84.7867 95.283 83.8503 96.7625 83.2338 98.7956M99.7466 97.0644C98.2948 91.4048 90.7458 85.8995 87.4883 88.1338C87.7646 88.5264 88.1991 88.4962 88.6101 88.58C90.0923 88.882 91.5913 89.1772 92.9286 89.9153C96.4892 91.8812 98.4228 94.971 99.1032 98.913C99.2077 99.5236 99.1268 100.255 99.9858 100.597C100.484 99.4061 99.9993 98.3359 99.7466 97.0644Z" fill="white"/>
<path d="M274.775 105.606C278.346 105.666 281.839 105.683 285.329 105.727C286.865 105.747 287.125 106.008 286.956 107.521C286.791 108.987 286.805 110.45 286.821 111.916C286.832 112.711 286.542 113.057 285.727 113.057C278.323 113.064 270.915 113.084 263.511 113.114C262.712 113.117 262.365 112.815 262.382 112.003C262.413 110.454 262.409 108.904 262.386 107.354C262.376 106.562 262.807 106.032 263.312 105.505C266.559 102.103 269.8 98.6981 273.03 95.2829C273.334 94.9642 273.782 94.7294 273.809 94.0953C272.936 93.9443 272.07 94.0114 271.205 94.0852C268.975 94.2798 266.748 94.1758 264.555 93.7799C262.985 93.4981 261.688 91.7335 261.759 90.2104C261.837 88.543 263.218 87.0736 264.899 86.7717C267.031 86.3892 269.18 86.5469 271.319 86.5637C275.395 86.5905 279.481 86.3523 283.551 86.7884C285.962 87.0468 287.536 89.6535 286.633 91.8811C286.131 93.119 285.235 94.0617 284.339 95.0045C281.246 98.262 278.141 101.506 275.045 104.764C274.836 104.985 274.439 105.15 274.772 105.612M285.521 89.734C284.938 88.5296 284.032 87.8419 282.348 87.7379C283.52 88.9959 284.453 90.0024 285.413 91.0323C285.757 90.5593 285.649 90.2305 285.521 89.734Z" fill="white"/>
<path d="M200.457 80.2634C202.121 78.576 204.025 78.0828 205.756 78.8309C207.71 79.6763 208.791 81.394 208.724 83.6384C208.7 84.4704 208.528 85.3024 208.501 86.1344C208.444 87.8924 208.495 87.9259 210.213 87.842C211.051 87.8018 211.877 87.7649 212.712 88.0031C214.656 88.5566 216.027 90.2777 215.943 92.1362C215.858 93.9378 214.504 95.3737 212.554 95.8199C211.634 96.0312 210.715 95.9675 209.795 96.0077C209.384 96.0245 208.858 95.9407 208.764 96.4908C208.377 98.7554 208.249 101.01 209.714 102.996C210.297 103.788 211.132 104.324 212.089 104.576C212.776 104.754 213.066 105.083 213.056 105.797C213.025 107.891 213.032 109.984 213.039 112.081C213.039 112.812 212.766 113.151 211.978 113.087C206.258 112.601 201.091 108.156 199.858 102.563C199.48 100.842 199.43 99.0774 199.524 97.3195C199.571 96.4741 199.383 96.0514 198.382 95.9776C196.132 95.8132 194.579 94.1525 194.444 91.9886C194.33 90.1737 195.805 88.3285 197.917 88.0064C199.292 87.7951 199.575 87.1912 199.534 85.9331C199.474 84.0343 199.17 82.0583 200.461 80.2634M212.82 89.4021C212.436 89.2477 212.052 89.0699 211.601 89.5195C212.53 90.4957 213.443 91.4552 214.498 92.559C214.811 90.9117 214.073 90.1032 212.82 89.4021ZM206.605 81.233C205.47 80.0454 205.089 79.8743 203.87 80.1125C205.079 81.0116 205.955 82.0918 206.922 83.1989C207.115 82.5593 207.009 81.904 206.605 81.233Z" fill="white"/>
<path d="M219.183 110.021C218.732 107.968 219.786 105.945 221.673 105.116C223.761 104.197 226.17 104.851 227.362 106.663C228.548 108.461 228.346 110.551 226.84 112.037C224.176 114.671 220.477 113.742 219.183 110.021ZM226.534 107.736C225.577 106.24 224.482 105.703 222.929 106.082C224.435 106.978 225.691 108.015 226.422 109.706C226.961 108.921 226.783 108.411 226.534 107.736Z" fill="white"/>
</g>
<defs>
<clipPath id="clip0_1811_2129">
<rect width="243" height="92" fill="white" transform="translate(44 34)"/>
</clipPath>
</defs>
</svg>
