<svg width="330" height="160" viewBox="0 0 330 160" fill="none" xmlns="http://www.w3.org/2000/svg">

<path d="M59.0059 79.0649C59.0059 73.6943 58.9989 68.372 59.0109 63.0508C59.0139 61.786 59.2782 60.5823 59.9913 59.4931C61.0016 57.9473 62.3959 57.0138 64.2341 56.6796C65.9685 56.3642 67.4954 56.8502 68.9725 57.69C72.6707 59.7917 76.3788 61.8747 80.084 63.9656C82.9654 65.5911 85.8457 67.2177 88.7271 68.8413C91.9805 70.6748 95.2278 72.5192 98.4932 74.3311C100.258 75.31 101.501 76.7069 101.832 78.6844C102.153 80.5978 101.795 82.4037 100.419 83.9366C99.4955 84.9648 98.2817 85.5306 97.1208 86.1892C93.7178 88.1203 90.3069 90.0387 86.8989 91.9609C83.4052 93.9315 79.9095 95.8982 76.4167 97.8707C73.8137 99.3415 71.2046 100.802 68.6154 102.297C64.8175 104.488 60.3344 102.516 59.2583 98.5874C59.0887 97.9673 59.0189 97.3019 59.0169 96.6572C58.9989 90.8095 59.0059 84.9628 59.0059 79.0659V79.0649Z" fill="white"/>
<path d="M245.128 57.2713C247.405 57.2772 249.682 57.2477 251.958 57.2989C255.004 57.367 257.967 57.8658 260.707 59.2715C263.552 60.7305 265.7 62.909 267.331 65.6101C268.24 67.1164 268.95 68.7153 269.377 70.4158C269.641 71.4627 269.791 72.5392 269.939 73.6098C270.028 74.2555 270.028 74.914 270.047 75.5666C270.126 78.3662 269.635 81.086 268.828 83.7565C267.976 86.5778 266.719 89.2256 265.134 91.7069C263.144 94.819 260.591 97.4136 257.445 99.4068C255.03 100.938 252.411 102.027 249.628 102.685C248.422 102.969 247.168 103.076 245.931 103.211C242.407 103.597 238.87 103.371 235.339 103.396C233.698 103.408 232.056 103.317 230.416 103.32C228.061 103.324 226.266 101.868 225.896 99.5409C225.797 98.9228 225.992 98.2515 226.097 97.6117C226.444 95.4942 226.804 93.3778 227.175 91.2632C227.485 89.5036 227.824 87.7499 228.135 85.9913C228.518 83.8284 228.884 81.6627 229.264 79.4998C229.54 77.9295 229.833 76.3631 230.108 74.7927C230.365 73.319 230.596 71.8413 230.861 70.3695C231.076 69.1737 231.329 67.9839 231.555 66.7891C231.859 65.1793 232.016 63.5271 232.486 61.9666C233.151 59.7575 234.482 58.0117 236.868 57.3423C237.35 57.2073 237.881 57.1994 238.39 57.1954C240.567 57.1806 242.744 57.1905 244.981 57.2151C245.066 57.2625 245.095 57.2723 245.128 57.2703M239.729 81.1875C239.607 81.8716 239.484 82.5558 239.366 83.2409C239.153 84.485 238.948 85.731 238.73 86.9751C238.506 88.2477 238.29 89.5223 238.031 90.7881C237.888 91.4821 237.659 92.1593 237.481 92.8464C237.388 93.2052 237.571 93.4093 237.919 93.4556C238.293 93.5049 238.672 93.5513 239.048 93.5513C241.216 93.5513 243.384 93.6193 245.542 93.2782C247.303 93.0002 248.937 92.4334 250.412 91.4387C252.566 89.9867 254.117 88.0151 255.291 85.7507C256.666 83.096 257.231 80.254 257.201 77.2769C257.18 75.2156 256.836 73.2391 255.906 71.3799C255.104 69.7751 253.956 68.5201 252.242 67.8419C250.785 67.2652 249.23 67.3234 247.71 67.2603C246.109 67.1933 244.501 67.3037 242.897 67.3175C242.39 67.3224 242.201 67.6132 242.125 68.0332C241.909 69.2102 241.706 70.3902 241.489 71.5672C241.173 73.2815 240.845 74.9948 240.529 76.7091C240.259 78.172 239.996 79.6369 239.73 81.1885L239.729 81.1875Z" fill="white"/>
<path d="M133.51 57.2197C135.428 57.2088 137.347 57.196 139.265 57.1871C140.043 57.1842 140.821 57.1911 141.658 57.2246C141.716 57.2542 141.759 57.2739 141.759 57.2739L141.806 57.2709C143.53 57.2374 145.214 57.4553 146.809 58.1296C148.314 58.7664 149.514 59.8133 150.565 61.0258C151.646 62.2738 152.376 63.7338 152.575 65.3485C152.752 66.7956 152.756 68.2822 152.648 69.7382C152.558 70.9724 152.268 72.2066 151.943 73.4073C151.429 75.3108 150.47 76.9946 149.187 78.5166C147.917 80.0239 146.37 81.1723 144.637 82.0615C143.582 82.6027 142.446 83.0059 141.316 83.3854C139.88 83.8675 139.745 84.1366 140.667 85.3126C142.254 87.3374 143.882 89.3297 145.477 91.3476C146.463 92.5927 147.467 93.8269 148.376 95.1261C149.097 96.1563 149.044 97.3284 148.563 98.4463C147.491 100.94 145.571 102.496 142.896 102.982C141.04 103.319 139.604 102.478 138.589 100.923C135.288 95.8694 131.984 90.8173 128.674 85.77C128.505 85.5118 128.255 85.3057 128.043 85.0751C127.912 85.3698 127.715 85.6537 127.661 85.9613C127.33 87.8708 127.044 89.7881 126.715 91.6976C126.415 93.4424 126.029 95.1735 125.774 96.9242C125.575 98.2826 125.111 99.4991 124.233 100.552C123.127 101.88 121.792 102.919 120.036 103.193C117.551 103.581 115.495 101.94 115.058 99.7041C114.78 98.2807 115.04 96.8828 115.28 95.4869C115.561 93.8427 115.86 92.2023 116.155 90.56C116.513 88.5687 116.876 86.5774 117.233 84.5861C117.508 83.0562 117.772 81.5233 118.05 79.9943C118.441 77.8473 118.85 75.7022 119.235 73.5542C119.649 71.2425 120.031 68.9259 120.452 66.6152C120.794 64.7373 121.1 62.8485 121.556 60.9962C122.099 58.789 124.239 57.264 126.58 57.2768C128.791 57.2887 131.001 57.2788 133.286 57.2818C133.408 57.263 133.457 57.2414 133.506 57.2197M139.324 75.6125C139.929 75.231 140.457 74.7716 140.814 74.1466C141.523 72.9065 141.856 71.6151 141.722 70.1532C141.537 68.1264 140.349 67.0549 138.537 66.9671C136.267 66.8577 133.987 66.9316 131.712 66.9464C131.108 66.9504 130.804 67.2156 130.716 67.8149C130.618 68.4724 130.56 69.1369 130.524 69.8013C130.422 71.6634 130.006 73.4654 129.525 75.2586C129.311 76.0551 129.508 76.3144 130.344 76.3035C131.733 76.2848 133.121 76.2414 134.51 76.2187C135.356 76.2049 136.204 76.2138 137.051 76.2079C137.834 76.203 138.569 76.0117 139.324 75.6135V75.6125Z" fill="white"/>
<path d="M189.969 100.266C189.073 101.415 188.072 102.391 186.742 102.982C185.17 103.679 182.912 103.542 181.792 102.195C181.212 101.498 180.957 100.699 180.885 99.8274C180.75 98.196 181.24 96.7173 181.998 95.2928C184.278 91.0125 186.544 86.7253 188.81 82.4372C191.32 77.6916 193.823 72.9421 196.329 68.1955C197.295 66.3669 198.196 64.5008 199.245 62.7195C200.661 60.3141 202.468 58.2479 204.971 56.8491C207.249 55.5764 209.401 55.7233 211.406 57.3647C212.177 57.9956 212.899 58.7034 213.548 59.4565C214.284 60.3141 214.354 61.4478 214.585 62.4996C215.051 64.6319 215.489 66.7701 215.937 68.9053C216.422 71.2169 216.905 73.5286 217.386 75.8403C217.795 77.803 218.202 79.7657 218.611 81.7274C219.1 84.0706 219.59 86.4138 220.078 88.7571C220.394 90.2762 220.74 91.7903 221.017 93.3173C221.421 95.5432 221.538 97.7671 220.335 99.8196C219.455 101.32 218.229 102.476 216.527 103.043C215.171 103.495 213.955 103.157 212.903 102.263C211.598 101.152 210.955 99.6855 210.702 98.0225C210.558 97.0741 210.381 96.1288 210.185 95.1893C210.02 94.4046 209.796 94.2499 208.949 94.2479C206.539 94.2439 204.129 94.2439 201.719 94.2439C199.342 94.2439 196.966 94.2479 194.589 94.2469C193.242 94.2469 192.86 94.5022 192.389 95.7423C191.78 97.3403 191.003 98.8495 189.97 100.264M208.305 84.391C208.375 84.2136 208.525 84.0263 208.505 83.8587C208.339 82.4855 208.146 81.1152 207.953 79.746C207.816 78.7661 207.66 77.7892 207.524 76.8083C207.364 75.6678 207.218 74.5243 207.063 73.3827C206.883 72.0657 206.71 70.7477 206.509 69.4337C206.476 69.2178 206.321 69.0206 206.222 68.8146C206.029 68.9555 205.756 69.0541 205.654 69.2434C205.125 70.2134 204.643 71.2081 204.14 72.1919C202.177 76.0296 200.211 79.8653 198.248 83.7029C197.995 84.1978 198.139 84.4728 198.687 84.4748C200.763 84.4817 202.837 84.4708 204.999 84.4787C205.174 84.4708 205.349 84.463 205.61 84.4709C205.842 84.4659 206.074 84.46 206.397 84.4699C206.638 84.4649 206.878 84.46 207.205 84.4709C207.438 84.4659 207.67 84.46 207.97 84.4689C208.055 84.4462 208.139 84.4225 208.304 84.391H208.305Z" fill="white"/>
<path d="M172.408 93.4914C173.106 93.4845 173.805 93.4785 174.564 93.4953C174.649 93.5416 174.679 93.5515 174.712 93.5495C175.892 93.5239 177.006 93.7674 178.029 94.3589C179.387 95.1435 180.031 96.7376 179.743 98.2744C179.508 99.5254 179.024 100.639 178.164 101.567C177.215 102.589 176.075 103.311 174.611 103.314C168.496 103.323 162.382 103.319 156.267 103.316C154.713 103.316 152.911 101.582 152.975 100.051C153.021 98.9368 153.208 97.8249 153.388 96.7208C153.65 95.1219 153.967 93.5308 154.25 91.9358C154.528 90.3723 154.79 88.8069 155.066 87.2434C155.392 85.3921 155.727 83.5418 156.056 81.6915C156.324 80.1911 156.587 78.6908 156.854 77.1904C157.147 75.5471 157.445 73.9038 157.737 72.2595C158.038 70.5679 158.334 68.8743 158.636 67.1827C158.934 65.5068 159.185 63.8211 159.553 62.1601C159.924 60.4872 160.649 58.9898 162.218 58.0533C163.101 57.5259 164.086 57.3011 165.089 57.2972C170.69 57.2716 176.29 57.2548 181.89 57.3011C183.295 57.313 184.323 58.074 184.895 59.39C185.767 61.3981 185.793 63.3539 184.443 65.1638C183.949 65.8252 183.319 66.4118 182.662 66.9195C182.319 67.1846 181.788 67.2507 181.329 67.3227C180.924 67.3867 180.501 67.3345 180.027 67.301C179.934 67.2665 179.9 67.2655 179.866 67.2635C178.464 67.2832 177.062 67.3167 175.66 67.3177C174.358 67.3187 173.055 67.2753 171.753 67.2704C170.962 67.2674 170.17 67.3227 169.379 67.3138C168.943 67.3089 168.792 67.5553 168.722 67.8984C168.258 70.1834 167.802 72.4714 167.341 74.7575C167.249 75.2168 167.333 75.3194 167.86 75.3194C171.217 75.3213 174.575 75.3351 177.932 75.3144C180.185 75.3006 181.645 76.9114 181.708 78.9579C181.768 80.9137 181.098 82.5067 179.698 83.8119C178.775 84.6715 177.636 85.1457 176.353 85.1723C175.024 85.1989 173.695 85.1891 172.365 85.1743C171.674 85.1664 170.983 85.0816 170.293 85.0865C168.887 85.0974 167.481 85.1447 166.076 85.1792C165.604 85.191 165.356 85.3507 165.298 85.8978C165.115 87.6259 164.87 89.3491 164.618 91.0693C164.531 91.6598 164.352 92.2365 164.215 92.8191C164.068 93.4391 164.16 93.5574 164.781 93.5564C166.892 93.5544 169.002 93.5535 171.187 93.5594C171.312 93.5416 171.362 93.517 171.412 93.4923C171.582 93.4864 171.754 93.4815 171.982 93.5081C172.073 93.5387 172.106 93.5377 172.139 93.5357C172.167 93.5229 172.196 93.518 172.274 93.5337C172.351 93.5278 172.38 93.5091 172.41 93.4914H172.408Z" fill="white"/>
<path d="M281.344 73.2218C279.841 70.5089 278.356 67.8286 276.874 65.1453C276.416 64.3152 276.082 63.4477 276.031 62.4866C275.958 61.1173 276.464 59.9817 277.405 59.0107C278.312 58.0752 279.32 57.2747 280.515 56.7178C282.841 55.6334 285.014 56.2712 286.299 58.5119C287.251 60.1739 288.112 61.8872 289.005 63.5828C290.089 65.6411 291.168 67.7024 292.235 69.7696C292.389 70.0673 292.44 70.4163 292.584 70.7209C292.68 70.923 292.825 71.1615 293.01 71.2404C293.127 71.2897 293.408 71.1162 293.532 70.9723C294.375 69.9855 295.191 68.976 296.028 67.9824C297.308 66.4623 298.593 64.9471 299.881 63.433C301.275 61.7936 302.654 60.1404 304.078 58.5257C305.168 57.2895 306.538 56.5857 308.234 56.4802C311.001 56.3087 312.704 58.1097 313.564 60.1523C313.706 60.4914 313.628 60.9261 313.629 61.3165C313.635 62.8484 313.618 62.8365 312.58 63.9781C310.687 66.0591 308.815 68.1598 306.926 70.2447C305.624 71.682 304.298 73.1006 302.997 74.5388C301.161 76.5666 299.403 78.6663 297.485 80.6152C296.499 81.6178 296.191 82.7731 295.972 84.0428C295.702 85.6181 295.383 87.1855 295.106 88.7608C294.849 90.2266 294.625 91.6974 294.38 93.1653C294.157 94.505 293.937 95.8447 293.693 97.1814C293.532 98.0676 293.421 98.9775 293.129 99.8243C292.511 101.613 291.154 102.674 289.356 103.214C287.747 103.698 286.178 103.691 284.734 102.726C283.635 101.993 283.134 100.899 283.024 99.6311C282.913 98.3692 283.253 97.1498 283.473 95.9215C283.751 94.3788 284.034 92.836 284.312 91.2933C284.592 89.7338 284.868 88.1742 285.149 86.6147C285.398 85.2307 285.699 83.8545 285.881 82.4626C285.942 81.9993 285.808 81.4443 285.586 81.0233C284.206 78.4189 282.775 75.842 281.342 73.2238L281.344 73.2218Z" fill="white"/>
<path d="M28.0318 59.3087C28.7848 60.5469 29.1508 61.8609 29.1807 63.2627C29.2017 64.2643 29.1917 65.2668 29.1797 66.2684C29.1528 68.513 29.1129 70.7576 29.087 73.0023C29.076 73.9486 29.5158 74.2365 30.4703 74.1172C32.3314 73.8856 34.1844 73.8787 35.7523 75.1267C38.1459 77.0332 39.1752 80.0605 37.3401 82.9104C36.5631 84.117 35.5897 85.0388 34.1914 85.4893C33.2449 85.7948 32.2725 85.7702 31.3001 85.7771C30.8353 85.7801 30.3696 85.7653 29.9048 85.7643C29.2834 85.7623 29.086 85.9585 29.086 86.5845C29.086 90.1984 29.1279 93.8123 29.075 97.4252C29.0341 100.209 26.8449 102.744 23.9047 103.138C21.2059 103.5 18.7584 101.925 17.6154 99.7585C17.2115 98.9926 17.005 98.2237 17.007 97.3443C17.027 85.7485 17.0309 74.1517 17 62.5559C16.997 61.5415 17.2583 60.6947 17.8089 59.8726C18.893 58.2559 20.2574 57.0365 22.2501 56.6648C23.802 56.376 25.2422 56.6934 26.4779 57.6457C27.0633 58.0962 27.5042 58.7291 28.0318 59.3097V59.3087Z" fill="white"/>
<path d="M49.0566 57.1544C51.176 58.2309 52.4097 59.8722 52.4147 62.2292C52.4347 72.5426 52.4207 82.8568 52.4187 93.1702C52.4187 94.5986 52.4496 96.0289 52.4117 97.4564C52.3379 100.235 50.5397 102.524 47.7122 103.096C44.4688 103.752 41.4029 101.953 40.622 98.867C40.4644 98.245 40.4565 97.5746 40.4565 96.927C40.4495 85.3982 40.4305 73.8684 40.4734 62.3397C40.4844 59.5144 42.4093 57.2757 45.2727 56.7098C46.5453 56.4584 47.8209 56.5827 49.0566 57.1534V57.1544Z" fill="white"/>
<path d="M171.383 93.4832C171.361 93.5137 171.312 93.5374 171.234 93.5571C171.255 93.5275 171.305 93.5019 171.383 93.4832Z" fill="#3F6CBE"/>
<path d="M174.697 93.5256C174.675 93.5515 174.647 93.5419 174.61 93.5016C174.626 93.4901 174.656 93.4959 174.697 93.5256Z" fill="#3F6CBE"/>
<path d="M172.381 93.4832C172.378 93.5062 172.35 93.5234 172.296 93.5349C172.299 93.5119 172.327 93.4947 172.381 93.4832Z" fill="#3F6CBE"/>
<path d="M172.118 93.5178C172.104 93.5341 172.072 93.5361 172.023 93.5178C172.037 93.491 172.068 93.4919 172.118 93.5178Z" fill="#3F6CBE"/>
<path d="M179.884 67.2797C179.9 67.2643 179.933 67.2653 179.979 67.2902C179.959 67.319 179.929 67.3132 179.884 67.2797Z" fill="#7591CC"/>
<path d="M206.356 84.4619C206.563 84.4372 206.815 84.4195 207.095 84.4283C206.882 84.4589 206.642 84.4638 206.356 84.4619Z" fill="#ADBADB"/>
<path d="M204.956 84.473C205.098 84.4464 205.285 84.4257 205.497 84.4307C205.349 84.4632 205.174 84.4711 204.956 84.473Z" fill="#ADBADB"/>
<path d="M207.94 84.4638C207.99 84.4332 208.074 84.4096 208.192 84.3938C208.141 84.4244 208.058 84.448 207.94 84.4638Z" fill="#ADBADB"/>
</svg>
