<svg width="330" height="160" viewBox="0 0 330 160" fill="none" xmlns="http://www.w3.org/2000/svg">
<rect x="0.5" y="0.5" width="329" height="159" rx="7.32353" stroke="#BDC1D8"/>
<g clip-path="url(#clip0_1811_2105)">
<path d="M107.921 98.1437V48.493L117.245 42.3677V60.8399C118.153 60.5045 119.205 60.217 120.401 59.9774C121.644 59.7378 122.839 59.618 123.987 59.618C128.051 59.618 131.207 60.3607 133.454 61.8462C135.749 63.2837 137.351 65.2963 138.259 67.8838C139.168 70.4714 139.622 73.4901 139.622 76.9403V98.1437H130.298V78.234C130.298 75.6944 130.059 73.6578 129.581 72.1245C129.15 70.5433 128.41 69.4172 127.358 68.7463C126.353 68.0276 124.895 67.6682 122.983 67.6682C122.313 67.6682 121.596 67.7401 120.831 67.8838C120.114 67.9796 119.444 68.0994 118.823 68.2432C118.201 68.387 117.675 68.5307 117.245 68.6745V98.1437H107.921Z" fill="white"/>
<path d="M146.289 98.1435V65.0963L155.613 60.4804V98.1435H146.289ZM150.951 53.724C149.421 53.724 148.082 53.2209 146.935 52.2146C145.787 51.1604 145.213 49.7468 145.213 47.9739C145.213 46.2009 145.787 44.8113 146.935 43.8051C148.082 42.7988 149.421 42.2957 150.951 42.2957C152.529 42.2957 153.868 42.7988 154.968 43.8051C156.115 44.8113 156.689 46.2009 156.689 47.9739C156.689 49.7468 156.115 51.1604 154.968 52.2146C153.868 53.2209 152.529 53.724 150.951 53.724Z" fill="white"/>
<path d="M162.665 98.1437V48.493L171.988 42.3677V74.7839C173.088 73.6338 174.212 72.4119 175.359 71.1183C176.555 69.8245 177.726 68.5307 178.874 67.2369C180.069 65.9432 181.169 64.7212 182.173 63.5712C183.225 62.3733 184.11 61.3431 184.827 60.4805H195.943C194.366 62.3014 192.716 64.1462 190.995 66.015C189.273 67.8838 187.528 69.7526 185.759 71.6215C183.99 73.4422 182.197 75.2872 180.38 77.1559C181.814 78.4017 183.297 79.8871 184.827 81.6123C186.404 83.3373 187.935 85.182 189.417 87.1467C190.899 89.0633 192.262 90.9802 193.505 92.8967C194.796 94.7657 195.872 96.5146 196.732 98.1437H185.974C184.827 96.275 183.488 94.2863 181.958 92.1781C180.428 90.0217 178.802 87.9612 177.081 85.9967C175.359 84.0319 173.662 82.4028 171.988 81.109V98.1437H162.665Z" fill="#38BA6A"/>
<path d="M214.429 98.9344C210.316 98.9344 207.065 98.1915 204.674 96.7061C202.331 95.2207 200.682 93.1844 199.726 90.5968C198.769 87.9611 198.291 84.9184 198.291 81.4683V60.4805H207.687V80.1745C207.687 82.7141 207.902 84.7747 208.332 86.3559C208.81 87.9371 209.599 89.0872 210.699 89.8061C211.799 90.5247 213.257 90.8843 215.074 90.8843C216.174 90.8843 217.226 90.8364 218.23 90.7406C219.282 90.6448 220.118 90.5486 220.74 90.4528V60.4805H230.064V96.8498C228.342 97.3292 226.095 97.7843 223.322 98.2155C220.596 98.6948 217.632 98.9344 214.429 98.9344Z" fill="white"/>
<path d="M252.079 99.0781C250.262 99.0781 248.422 98.9584 246.557 98.7188C244.692 98.5272 242.947 98.2874 241.321 98C239.696 97.6646 238.285 97.3053 237.09 96.9218V48.493L246.413 42.3677V61.6306C247.513 61.1035 248.756 60.6482 250.143 60.2649C251.577 59.8816 253.131 59.6899 254.805 59.6899C258.391 59.6899 261.403 60.5045 263.842 62.1337C266.328 63.7629 268.193 66.063 269.436 69.0338C270.727 71.9568 271.372 75.383 271.372 79.3122C271.372 83.3373 270.607 86.8353 269.077 89.8061C267.547 92.729 265.324 95.0052 262.407 96.6343C259.538 98.2634 256.096 99.0781 252.079 99.0781ZM252.008 91.0281C254.112 91.0281 255.881 90.5487 257.315 89.5906C258.797 88.5842 259.921 87.1946 260.686 85.4218C261.451 83.6487 261.834 81.5402 261.834 79.0967C261.834 77.2756 261.666 75.6704 261.332 74.2809C260.997 72.8434 260.471 71.6454 259.753 70.687C259.036 69.6807 258.128 68.938 257.028 68.4588C255.976 67.9317 254.685 67.6682 253.155 67.6682C251.816 67.6682 250.525 67.8599 249.282 68.2432C248.087 68.6265 247.131 69.0817 246.413 69.6088V90.5247C246.987 90.6209 247.752 90.7406 248.709 90.8843C249.665 90.9802 250.764 91.0281 252.008 91.0281Z" fill="white"/>
<path d="M294.082 99.078C289.587 99.078 285.906 98.2394 283.037 96.5623C280.168 94.8374 278.016 92.4894 276.582 89.5186C275.195 86.5475 274.502 83.2174 274.502 79.5277C274.502 75.0712 275.362 71.3817 277.084 68.4587C278.805 65.4878 281.005 63.2596 283.682 61.7742C286.36 60.2408 289.205 59.4741 292.217 59.4741C295.66 59.4741 298.624 60.1929 301.11 61.6304C303.645 63.0679 305.581 65.2003 306.92 68.0274C308.307 70.8546 309 74.4005 309 78.6651C309 79.1923 308.976 79.7912 308.928 80.4622C308.88 81.1328 308.832 81.732 308.785 82.259H284.184C284.375 84.9902 285.403 87.1227 287.268 88.656C289.181 90.1893 291.834 90.9561 295.229 90.9561C297.333 90.9561 299.27 90.7644 301.039 90.3809C302.856 89.9976 304.29 89.5665 305.342 89.0871L306.705 96.7779C305.653 97.3052 303.932 97.8082 301.541 98.2873C299.198 98.8145 296.712 99.078 294.082 99.078ZM284.184 75.6464H299.891C299.843 74.161 299.533 72.7953 298.959 71.5494C298.433 70.2556 297.62 69.2254 296.52 68.4587C295.468 67.692 294.058 67.3087 292.289 67.3087C290.567 67.3087 289.133 67.716 287.985 68.5306C286.886 69.2973 286.025 70.3275 285.403 71.6213C284.782 72.8672 284.375 74.2089 284.184 75.6464Z" fill="white"/>
<path d="M108.736 115.156V108.667H110.73C112.161 108.667 113.119 109.152 113.119 110.576C113.119 111.941 112.142 112.584 110.73 112.584H109.566V115.156H108.736ZM109.566 111.912H110.622C111.757 111.912 112.3 111.496 112.3 110.576C112.3 109.637 111.737 109.33 110.622 109.33H109.566V111.912ZM119.734 115.275C118.106 115.275 116.961 113.969 116.961 111.882C116.961 109.805 118.106 108.549 119.734 108.549C121.353 108.549 122.498 109.815 122.498 111.882C122.498 113.969 121.353 115.275 119.734 115.275ZM119.734 114.553C120.889 114.553 121.649 113.504 121.649 111.882C121.649 110.27 120.889 109.271 119.734 109.271C118.57 109.271 117.81 110.27 117.81 111.882C117.81 113.504 118.57 114.553 119.734 114.553ZM127.456 115.156L126.084 108.667H126.933L127.614 112.199C127.742 112.901 127.87 113.593 127.998 114.296H128.038C128.176 113.593 128.334 112.891 128.492 112.199L129.39 108.667H130.14L131.038 112.199C131.187 112.881 131.344 113.593 131.503 114.296H131.542C131.67 113.593 131.789 112.891 131.907 112.199L132.588 108.667H133.388L132.045 115.156H131.048L130.071 111.249C129.963 110.745 129.854 110.28 129.765 109.775H129.726C129.617 110.28 129.509 110.745 129.4 111.249L128.433 115.156H127.456ZM137.417 115.156V108.667H141.148V109.36H138.246V111.398H140.694V112.1H138.246V114.454H141.246V115.156H137.417ZM146.364 109.33V111.743H147.449C148.456 111.743 149.009 111.328 149.009 110.487C149.009 109.637 148.456 109.33 147.449 109.33H146.364ZM150.025 115.156H149.088L147.528 112.416H146.364V115.156H145.535V108.667H147.568C148.881 108.667 149.828 109.142 149.828 110.487C149.828 111.496 149.256 112.1 148.377 112.327L150.025 115.156ZM154.182 115.156V108.667H157.913V109.36H155.011V111.398H157.459V112.1H155.011V114.454H158.012V115.156H154.182ZM162.3 115.156V108.667H163.919C165.912 108.667 166.978 109.825 166.978 111.882C166.978 113.949 165.912 115.156 163.958 115.156H162.3ZM163.129 114.483H163.86C165.379 114.483 166.13 113.524 166.13 111.882C166.13 110.25 165.379 109.34 163.86 109.34H163.129V114.483ZM176.261 115.156V108.667H178.185C179.498 108.667 180.416 109.112 180.416 110.25C180.416 110.893 180.051 111.467 179.281 111.665V111.704C180.228 111.852 180.781 112.367 180.781 113.257C180.781 114.533 179.774 115.156 178.333 115.156H176.261ZM177.089 111.437H178.047C179.142 111.437 179.607 111.041 179.607 110.319C179.607 109.617 179.083 109.32 178.087 109.32H177.089V111.437ZM177.089 114.503H178.215C179.32 114.503 179.972 114.098 179.972 113.217C179.972 112.416 179.35 112.05 178.215 112.05H177.089V114.503ZM185.897 115.156V112.644L183.942 108.667H184.831L185.66 110.497C185.867 110.972 186.065 111.427 186.292 111.912H186.331C186.548 111.427 186.775 110.972 186.973 110.497L187.812 108.667H188.661L186.716 112.644V115.156H185.897ZM197.404 115.156V108.667H198.233V111.387H201.243V108.667H202.062V115.156H201.243V112.1H198.233V115.156H197.404ZM206.755 115.156V108.667H207.584V115.156H206.755ZM212.261 115.156V108.667H213.879C215.873 108.667 216.939 109.825 216.939 111.882C216.939 113.949 215.873 115.156 213.919 115.156H212.261ZM213.09 114.483H213.82C215.34 114.483 216.09 113.524 216.09 111.882C216.09 110.25 215.34 109.34 213.82 109.34H213.09V114.483ZM223.663 115.275C222.035 115.275 220.89 113.969 220.89 111.882C220.89 109.805 222.035 108.549 223.663 108.549C225.282 108.549 226.427 109.815 226.427 111.882C226.427 113.969 225.282 115.275 223.663 115.275ZM223.663 114.553C224.818 114.553 225.578 113.504 225.578 111.882C225.578 110.27 224.818 109.271 223.663 109.271C222.499 109.271 221.739 110.27 221.739 111.882C221.739 113.504 222.499 114.553 223.663 114.553ZM231.561 109.33V111.743H232.647C233.653 111.743 234.206 111.328 234.206 110.487C234.206 109.637 233.653 109.33 232.647 109.33H231.561ZM235.223 115.156H234.285L232.726 112.416H231.561V115.156H230.732V108.667H232.765C234.078 108.667 235.025 109.142 235.025 110.487C235.025 111.496 234.453 112.1 233.575 112.327L235.223 115.156ZM240.093 112.515H242.037L241.731 111.526C241.504 110.804 241.297 110.092 241.09 109.34H241.05C240.843 110.092 240.636 110.804 240.408 111.526L240.093 112.515ZM242.866 115.156L242.244 113.178H239.886L239.264 115.156H238.425L240.616 108.667H241.544L243.735 115.156H242.866Z" fill="white"/>
<path d="M54.0265 79.782L86.8204 60.8583V60.8568L53.9078 42.1047L54.025 79.7805L54.0265 79.782Z" fill="url(#paint0_linear_1811_2105)"/>
<path d="M21.117 98.7726L54.1702 81.2151L53.9111 42L21 60.8568L21.117 98.7726Z" fill="url(#paint1_linear_1811_2105)"/>
<path d="M21.117 98.7726L53.9111 117.831V79.8489L21.117 98.7726Z" fill="url(#paint2_linear_1811_2105)"/>
<path d="M86.705 65.3255L53.9111 84.3844V79.8489L86.8219 60.8569L86.705 65.3255Z" fill="url(#paint3_linear_1811_2105)"/>
<path d="M86.705 98.5153L53.9111 117.574V113.039L86.8219 94.0466L86.705 98.5153Z" fill="url(#paint4_linear_1811_2105)"/>
<path d="M86.705 90.2352L79.0786 94.6382V90.2352L86.8219 85.7666L86.705 90.2352Z" fill="url(#paint5_linear_1811_2105)"/>
<path d="M82.9672 84.127L53.9111 101.014V96.4784L83.0844 79.6587L82.9672 84.127Z" fill="url(#paint6_linear_1811_2105)"/>
<path d="M74.5574 80.6639L53.9111 92.7337V88.1983L74.5574 76.376V80.6639Z" fill="url(#paint7_linear_1811_2105)"/>
<path d="M74.5574 97.1517L53.9111 109.222V104.686L74.5574 92.8638V97.1517Z" fill="url(#paint8_linear_1811_2105)"/>
<path d="M74.5574 97.2242L53.9111 109.294V104.759L74.5574 92.9363V97.2242Z" fill="url(#paint9_linear_1811_2105)"/>
<path d="M53.9111 68.7494L40.4356 61.2181L53.9111 53.427L67.9048 61.4778L53.9111 68.7494Z" fill="url(#paint10_radial_1811_2105)"/>
<path d="M45.9024 83.751L46.1318 99.2121L32.6614 91.4122L32.6217 75.2419L45.9024 83.751Z" fill="url(#paint11_radial_1811_2105)"/>
<path d="M53.9111 42L21 60.8568L53.9111 79.8489L86.8219 60.8568L53.9111 42ZM40.994 60.8979L53.9111 53.4447L66.828 60.8979L53.9111 68.4041L40.994 60.8979Z" fill="#38BA6A"/>
<path d="M21 60.8569L21.117 98.7726L53.9111 117.831V79.8489L21 60.8569ZM43.6534 100.806L30.6194 93.2849V78.242L43.7005 85.7361L43.6534 100.806Z" fill="#00683B"/>
</g>
<defs>
<linearGradient id="paint0_linear_1811_2105" x1="59.6121" y1="74.2029" x2="85.3225" y2="48.548" gradientUnits="userSpaceOnUse">
<stop stop-color="#38BA6A"/>
<stop offset="1" stop-color="#30634D"/>
</linearGradient>
<linearGradient id="paint1_linear_1811_2105" x1="54.1702" y1="80.4359" x2="20.9634" y2="61.0208" gradientUnits="userSpaceOnUse">
<stop stop-color="#38BA6A"/>
<stop offset="1" stop-color="#30634D"/>
</linearGradient>
<linearGradient id="paint2_linear_1811_2105" x1="50.0239" y1="91.3432" x2="32.8992" y2="102.217" gradientUnits="userSpaceOnUse">
<stop stop-color="#38BA6A"/>
<stop offset="1" stop-color="#30634D"/>
</linearGradient>
<linearGradient id="paint3_linear_1811_2105" x1="50.0239" y1="76.127" x2="66.7681" y2="52.5243" gradientUnits="userSpaceOnUse">
<stop stop-color="#38BA6A"/>
<stop offset="1" stop-color="#74FF9E"/>
</linearGradient>
<linearGradient id="paint4_linear_1811_2105" x1="50.0239" y1="109.316" x2="66.7681" y2="85.7139" gradientUnits="userSpaceOnUse">
<stop stop-color="#38BA6A"/>
<stop offset="1" stop-color="#74FF9E"/>
</linearGradient>
<linearGradient id="paint5_linear_1811_2105" x1="50.0239" y1="101.036" x2="66.7681" y2="77.4339" gradientUnits="userSpaceOnUse">
<stop stop-color="#38BA6A"/>
<stop offset="1" stop-color="#74FF9E"/>
</linearGradient>
<linearGradient id="paint6_linear_1811_2105" x1="50.0239" y1="92.7561" x2="66.7681" y2="69.1537" gradientUnits="userSpaceOnUse">
<stop stop-color="#38BA6A"/>
<stop offset="1" stop-color="#74FF9E"/>
</linearGradient>
<linearGradient id="paint7_linear_1811_2105" x1="50.0239" y1="84.476" x2="66.7681" y2="60.8736" gradientUnits="userSpaceOnUse">
<stop stop-color="#38BA6A"/>
<stop offset="1" stop-color="#74FF9E"/>
</linearGradient>
<linearGradient id="paint8_linear_1811_2105" x1="50.0239" y1="100.964" x2="66.7681" y2="77.3613" gradientUnits="userSpaceOnUse">
<stop stop-color="#38BA6A"/>
<stop offset="1" stop-color="#74FF9E"/>
</linearGradient>
<linearGradient id="paint9_linear_1811_2105" x1="50.0239" y1="101.036" x2="66.7681" y2="77.4339" gradientUnits="userSpaceOnUse">
<stop stop-color="#38BA6A"/>
<stop offset="1" stop-color="#74FF9E"/>
</linearGradient>
<radialGradient id="paint10_radial_1811_2105" cx="0" cy="0" r="1" gradientUnits="userSpaceOnUse" gradientTransform="translate(54.1702 68.4897) rotate(90) scale(11.4269 14.974)">
<stop stop-color="#74FF9E"/>
<stop offset="1" stop-color="#74FF9E" stop-opacity="0"/>
</radialGradient>
<radialGradient id="paint11_radial_1811_2105" cx="0" cy="0" r="1" gradientTransform="matrix(9.87462 -5.71344 7.487 12.9959 45.5484 83.6561)" gradientUnits="userSpaceOnUse">
<stop stop-color="#74FF9E"/>
<stop offset="1" stop-color="#74FF9E" stop-opacity="0"/>
</radialGradient>
<clipPath id="clip0_1811_2105">
<rect width="288" height="76" fill="white" transform="translate(21 42)"/>
</clipPath>
</defs>
</svg>
